<svg width="25" height="25" viewBox="0 0 25 25" xmlns="http://www.w3.org/2000/svg"><title>Page 1</title><path d="M16.695 9.867c-.079.767-.115 1.54-.226 2.303-.02.144-.294.34-.467.357a9.58 9.58 0 0 1-1.477.015c-.419-.023-.537.152-.535.549.011 2.5.005 5.002.005 7.503 0 .148-.006.296 0 .445.015.365-.125.533-.52.523a70.209 70.209 0 0 0-2.812 0c-.362.005-.49-.126-.488-.489.015-1.349.006-2.698.006-4.047 0-1.318-.012-2.634.006-3.95.006-.38-.106-.547-.503-.516-.326.026-.658-.008-.986.007-.304.015-.4-.122-.397-.412.011-.79.013-1.579-.002-2.368-.006-.317.115-.459.427-.455.262.003.525-.002.789-.003.662-.003.66-.003.667-.644.007-.708-.007-1.417.033-2.123.092-1.633 1.044-2.75 2.653-2.947 1.136-.14 2.294-.094 3.443-.13.267-.01.385.119.384.389-.006.838-.01 1.677.002 2.516.004.31-.155.407-.423.411-.543.01-1.085.027-1.628.024-.43-.002-.639.195-.638.626.001.46.005.922-.015 1.382-.017.356.113.512.481.5.56-.018 1.12.008 1.678-.007.387-.01.587.115.543.54zM0 0l.009 25H24.99L25 0H0z" fill="#FFF" fill-rule="evenodd"/></svg>