<svg width="323" height="59" viewBox="0 0 323 59" xmlns="http://www.w3.org/2000/svg" xmlns:xlink="http://www.w3.org/1999/xlink"><title>Fill 11111</title><defs><path id="a" d="M0 58.979h322.93V0H0z"/></defs><g fill="none" fill-rule="evenodd"><path d="M180.18 49.72c-5.203 4.861-11.967 7.527-19.144 7.527-7.177 0-13.942-2.666-19.145-7.527l3.356-3.332c4.306 3.973 9.879 6.15 15.789 6.15s11.482-2.177 15.788-6.15l3.356 3.332zm-6.9-9.299l-2.008-1.993a13.43 13.43 0 0 0 3.403-8.939 13.43 13.43 0 0 0-3.403-8.939l2.007-1.992a16.226 16.226 0 0 1 4.231 10.931c0 4.2-1.602 8.033-4.23 10.932zm-24.488-21.863l2.007 1.992a13.43 13.43 0 0 0-3.403 8.94 13.43 13.43 0 0 0 3.403 8.938l-2.007 1.993a16.226 16.226 0 0 1-4.231-10.932c0-4.198 1.602-8.032 4.23-10.931zM161.036 41.3c-6.56 0-11.897-5.298-11.897-11.81 0-6.513 5.337-11.811 11.897-11.811 6.56 0 11.896 5.298 11.896 11.81 0 6.513-5.337 11.811-11.896 11.811zm10.4-.262a15.554 15.554 0 0 1-10.4 3.942 15.554 15.554 0 0 1-10.4-3.942l1.39-1.38-.008-.018a13.64 13.64 0 0 0 9.018 3.391 13.64 13.64 0 0 0 9.013-3.387l-.004.014 1.39 1.38zm-1.384-21.7a13.639 13.639 0 0 0-9.016-3.39 13.64 13.64 0 0 0-9.019 3.391l.01-.018-1.391-1.38a15.554 15.554 0 0 1 10.4-3.943c3.875 0 7.536 1.394 10.4 3.942l-1.391 1.381.007.017zm-28.16-10.08c5.203-4.86 11.967-7.527 19.144-7.527 7.177 0 13.94 2.667 19.144 7.528l-3.356 3.331c-4.306-3.972-9.879-6.15-15.788-6.15-5.91 0-11.483 2.178-15.789 6.15l-3.356-3.331zm44.334 20.231c0-6.595-2.572-12.592-6.773-17.06l3.202-3.18-.616-.612C176.429 3.067 168.969 0 161.036 0c-7.934 0-15.393 3.068-21.003 8.637l-.617.612 3.203 3.18c-4.202 4.468-6.774 10.465-6.774 17.06 0 6.595 2.572 12.592 6.774 17.06l-3.203 3.18.617.612c5.61 5.57 13.069 8.637 21.003 8.637 7.934 0 15.393-3.067 21.003-8.637l.616-.612-3.202-3.18c4.2-4.467 6.773-10.465 6.773-17.06z" fill="#FEFEFE"/><path d="M158.985 37.61c-2.07-.474-6.372-3.32-5.894-6.721.478-3.4 1.752-3.163 2.629-5.456 0 0 .876.949.876 2.372 0 0 4.62-3.084 3.982-7.117 0 0 4.142.949 5.018 6.168 0 0 1.752-1.581 1.274-3.163 0 0 2.947 3.321 2.31 7.196-.637 3.875-3.265 5.693-5.416 6.405 0 0 3.505-5.377-1.035-9.726 0 0 .557 2.688-1.434 4.112 0 0-.16-1.424-1.035-1.898 0 0-1.354 1.74-2.23 3.242-.877 1.502-.399 3.558.955 4.586M4.168 26.097v1.01c0 2.104-.33 3.61-.903 4.99h3.867v-6H4.168zm-4.168 6h.945c.745-1.72 1.103-3.412 1.103-6.81V24.12h7.29v7.977h1.203l-.286 4.053H8.407v-2.076H2.134l-.143 2.076H0v-4.053zm21.44-3c0-1.706-1.26-3.128-3.037-3.128-1.776 0-3.008 1.393-3.008 3.128 0 1.706 1.261 3.128 3.037 3.128s3.008-1.393 3.008-3.128m-8.35 0c0-2.83 2.248-5.148 5.342-5.148 3.094 0 5.314 2.29 5.314 5.148 0 2.83-2.25 5.147-5.343 5.147s-5.313-2.29-5.313-5.147m16.269.554v2.446h2.435c1.03 0 1.532-.398 1.532-1.265 0-.768-.501-1.18-1.547-1.18h-2.42zm0-1.82h2.65c2.262 0 3.523 1.223 3.523 3.086 0 2.033-1.418 3.157-3.738 3.157h-4.64V24.12h7.69v1.977H29.36v1.734zM42.75 29.14c1.102 0 1.747-.654 1.747-1.536 0-.981-.688-1.507-1.79-1.507h-1.705v3.043h1.747zm-3.954-5.02h4.097c2.391 0 3.838 1.408 3.838 3.47 0 2.303-1.805 3.498-4.053 3.498h-1.676v2.986h-2.206V24.12zm18.919 4.977c0-1.706-1.26-3.128-3.036-3.128s-3.008 1.393-3.008 3.128c0 1.706 1.26 3.128 3.037 3.128 1.776 0 3.007-1.393 3.007-3.128m-8.35 0c0-2.83 2.25-5.148 5.343-5.148s5.313 2.29 5.313 5.148c0 2.83-2.248 5.147-5.342 5.147-3.093 0-5.313-2.29-5.313-5.147m18.832 3.057c.974 0 1.562-.341 1.562-1.109 0-.668-.502-1.08-1.633-1.08h-2.55v2.189h2.621zm-.587-4.01c.974 0 1.59-.313 1.59-1.08 0-.654-.516-1.024-1.447-1.024h-2.177v2.104h2.034zM63.43 24.12h4.655c1.146 0 2.048.313 2.62.882.46.455.688 1.01.688 1.72 0 1.124-.601 1.75-1.317 2.147 1.16.441 1.876 1.11 1.876 2.475 0 1.82-1.49 2.73-3.753 2.73H63.43V24.12zm19.691 4.977c0-1.706-1.26-3.128-3.036-3.128s-3.008 1.393-3.008 3.128c0 1.706 1.26 3.128 3.037 3.128 1.776 0 3.007-1.393 3.007-3.128m-8.35 0c0-2.83 2.249-5.148 5.343-5.148 3.093 0 5.313 2.29 5.313 5.148 0 2.83-2.248 5.147-5.342 5.147-3.094 0-5.314-2.29-5.314-5.147m22.127-4.977v9.954h-2.205v-7.977H91.8v.753c0 5.859-.96 7.352-3.251 7.352a5.67 5.67 0 0 1-1.16-.128l.143-1.806c.1.014.2.028.343.028 1.19 0 1.862-.753 1.862-6.114V24.12h7.161zm6.058 5.261v2.716h1.962c1.089 0 1.647-.469 1.647-1.393 0-.84-.558-1.323-1.661-1.323h-1.948zm-2.206-5.26h2.206v3.383h2.134c2.32 0 3.666 1.28 3.666 3.228 0 2.048-1.46 3.342-3.81 3.342h-4.196V24.12zm18.575 9.953h-7.433V24.12h2.206v7.977h3.953V24.12h2.205v7.977h1.189l-.286 4.053h-1.834z" fill="#FEFEFE"/><mask id="b" fill="#fff"><use xlink:href="#a"/></mask><path fill="#FEFEFE" mask="url(#b)" d="M124.538 34.074h2.205V24.12h-2.205zm76.747-1.92c.974 0 1.56-.341 1.56-1.109 0-.668-.5-1.08-1.632-1.08h-2.55v2.189h2.622zm-.588-4.01c.974 0 1.59-.313 1.59-1.08 0-.654-.515-1.024-1.446-1.024h-2.177v2.104h2.033zm-4.182-4.024h4.655c1.146 0 2.048.313 2.621.882.458.455.687 1.01.687 1.72 0 1.124-.6 1.75-1.317 2.147 1.16.441 1.876 1.11 1.876 2.475 0 1.82-1.49 2.73-3.752 2.73h-4.77V24.12zm21.525 4.977c0-1.706-1.26-3.128-3.036-3.128s-3.007 1.393-3.007 3.128c0 1.706 1.26 3.128 3.036 3.128s3.008-1.393 3.008-3.128m-8.35 0c0-2.83 2.248-5.148 5.342-5.148 3.094 0 5.313 2.29 5.313 5.148 0 2.83-2.248 5.147-5.342 5.147-3.093 0-5.313-2.29-5.313-5.147m18.102 4.977h-2.206V24.12h7.004v1.977h-4.798zm9.638-9.954h2.206v3.939h4.067V24.12h2.206v9.954h-2.206v-3.996h-4.067v3.996h-2.206zm14.164 0h7.562v1.948h-5.37v2.02h4.726v1.947h-4.727v2.09h5.443v1.949h-7.634zm15.081 5.531v2.446h2.434c1.031 0 1.533-.398 1.533-1.265 0-.768-.502-1.18-1.547-1.18h-2.42zm0-1.82h2.65c2.262 0 3.522 1.223 3.522 3.086 0 2.033-1.417 3.157-3.738 3.157h-4.64V24.12h7.691v1.977h-5.485v1.734zm19.176 1.266c0-1.706-1.26-3.128-3.036-3.128s-3.008 1.393-3.008 3.128c0 1.706 1.26 3.128 3.036 3.128s3.008-1.393 3.008-3.128m-8.35 0c0-2.83 2.249-5.148 5.342-5.148 3.094 0 5.314 2.29 5.314 5.148 0 2.83-2.249 5.147-5.342 5.147-3.094 0-5.314-2.29-5.314-5.147m19.85.043c1.103 0 1.747-.654 1.747-1.536 0-.981-.687-1.507-1.79-1.507h-1.704v3.043h1.747zm-3.953-5.02h4.096c2.392 0 3.838 1.408 3.838 3.47 0 2.303-1.804 3.498-4.053 3.498h-1.675v2.986h-2.206V24.12zm20.279 9.954h-7.433V24.12h2.206v7.977h3.953V24.12h2.205v7.977h1.19l-.287 4.053h-1.834zm7.046 0h2.206V24.12h-2.206z"/></g></svg>