<svg width="130" height="40" viewBox="0 0 130 40" xmlns="http://www.w3.org/2000/svg"><title>Logo</title><g fill="#FEFEFE" fill-rule="evenodd"><path d="M28.374 33.798c-3.268 3.247-7.516 5.028-12.023 5.028s-8.755-1.781-12.023-5.028l2.107-2.226c2.705 2.654 6.204 4.108 9.916 4.108 3.711 0 7.211-1.454 9.915-4.108l2.108 2.226zm-4.334-6.212l-1.26-1.33a9.302 9.302 0 0 0 2.137-5.972 9.302 9.302 0 0 0-2.137-5.97l1.26-1.332c1.651 1.937 2.657 4.498 2.657 7.302 0 2.805-1.006 5.366-2.657 7.302zM8.662 12.982l1.26 1.331a9.302 9.302 0 0 0-2.137 5.971c0 2.286.808 4.377 2.137 5.971l-1.26 1.331C7.01 25.65 6.003 23.09 6.003 20.284c0-2.804 1.007-5.365 2.658-7.302zm7.689 15.191c-4.12 0-7.471-3.539-7.471-7.889s3.351-7.889 7.47-7.889c4.12 0 7.472 3.54 7.472 7.89s-3.352 7.888-7.471 7.888zM22.882 28c-1.798 1.702-4.097 2.633-6.531 2.633-2.434 0-4.733-.931-6.531-2.633l.873-.923-.005-.011c1.51 1.408 3.494 2.265 5.663 2.265 2.168 0 4.15-.856 5.66-2.263l-.002.01.873.922zm-.868-14.496c-1.511-1.408-3.494-2.264-5.663-2.264-2.17 0-4.153.856-5.664 2.265l.006-.012-.873-.922c1.798-1.702 4.097-2.633 6.53-2.633 2.435 0 4.734.93 6.532 2.633l-.873.922.005.011zM4.328 6.771c3.268-3.247 7.516-5.028 12.023-5.028s8.755 1.78 12.023 5.028l-2.108 2.225c-2.704-2.653-6.204-4.108-9.915-4.108-3.712 0-7.211 1.455-9.916 4.108L4.328 6.771zM32.17 20.284c0-4.405-1.615-8.411-4.254-11.396l2.011-2.123-.387-.41C26.018 2.636 21.334.587 16.351.587c-4.983 0-9.667 2.05-13.19 5.77l-.388.409 2.012 2.123C2.146 11.873.53 15.88.53 20.284c0 4.405 1.615 8.411 4.254 11.396l-2.012 2.124.388.409c3.523 3.72 8.207 5.77 13.19 5.77 4.983 0 9.667-2.05 13.19-5.77l.387-.41-2.01-2.123c2.638-2.985 4.253-6.99 4.253-11.396z"/><path d="M15.063 25.709c-1.3-.317-4.002-2.219-3.701-4.49.3-2.271 1.1-2.113 1.65-3.644 0 0 .55.633.55 1.584 0 0 2.902-2.06 2.502-4.754 0 0 2.6.634 3.15 4.12 0 0 1.101-1.056.801-2.113 0 0 1.851 2.219 1.45 4.807-.4 2.588-2.05 3.803-3.4 4.279 0 0 2.2-3.592-.65-6.497 0 0 .35 1.796-.901 2.746 0 0-.1-.95-.65-1.267 0 0-.85 1.162-1.401 2.165-.55 1.004-.25 2.377.6 3.064m31.943-.109v.724c0 1.508-.222 2.588-.608 3.576h2.605v-4.3h-1.997zm-2.808 4.3h.637c.502-1.233.743-2.445.743-4.88v-.836h4.91V29.9h.811l-.193 2.904h-1.244v-1.488h-4.226l-.097 1.488H44.2V29.9zm14.382-2.028c0-1.222-.848-2.241-2.045-2.241-1.196 0-2.026.998-2.026 2.241 0 1.223.85 2.242 2.046 2.242 1.196 0 2.026-.999 2.026-2.242m-5.625 0c0-2.027 1.515-3.688 3.599-3.688 2.084 0 3.58 1.64 3.58 3.688 0 2.028-1.516 3.689-3.6 3.689s-3.58-1.64-3.58-3.689m11.592.275V29.9h1.64c.695 0 1.032-.285 1.032-.907 0-.55-.337-.846-1.042-.846h-1.63zm0-1.304h1.785c1.524 0 2.373.877 2.373 2.211 0 1.457-.955 2.262-2.518 2.262H63.06v-7.132h5.181V25.6h-3.695v1.243zm8.587.937c.743 0 1.177-.468 1.177-1.1 0-.703-.463-1.08-1.206-1.08h-1.148v2.18h1.177zm-2.663-3.596h2.76c1.61 0 2.585 1.009 2.585 2.486 0 1.65-1.215 2.507-2.73 2.507h-1.129v2.14h-1.486v-7.133zm13.036 3.688c0-1.222-.85-2.241-2.046-2.241-1.196 0-2.026.998-2.026 2.241 0 1.223.849 2.242 2.045 2.242 1.197 0 2.027-.999 2.027-2.242m-5.626 0c0-2.027 1.515-3.688 3.6-3.688 2.083 0 3.579 1.64 3.579 3.688 0 2.028-1.515 3.689-3.599 3.689-2.084 0-3.58-1.64-3.58-3.689m12.645 2.068c.656 0 1.051-.244 1.051-.794 0-.479-.337-.774-1.1-.774H88.76v1.569h1.766zm-.396-2.873c.656 0 1.071-.224 1.071-.774 0-.468-.347-.733-.974-.733H88.76v1.507h1.37zm-2.817-2.883h3.136c.771 0 1.38.224 1.765.632.309.326.463.723.463 1.233 0 .805-.405 1.253-.887 1.538.781.316 1.264.795 1.264 1.773 0 1.304-1.004 1.956-2.528 1.956h-3.213v-7.132zm13.035 3.688c0-1.222-.849-2.241-2.045-2.241-1.197 0-2.026.998-2.026 2.241 0 1.223.849 2.242 2.045 2.242s2.026-.999 2.026-2.242m-5.625 0c0-2.027 1.515-3.688 3.6-3.688 2.083 0 3.579 1.64 3.579 3.688 0 2.028-1.515 3.689-3.6 3.689-2.083 0-3.579-1.64-3.579-3.689m15.165-3.688v7.132h-1.486V25.6h-1.95v.54c0 4.198-.646 5.268-2.19 5.268-.24 0-.598-.04-.781-.092l.096-1.294c.068.01.135.02.232.02.8 0 1.254-.54 1.254-4.38v-1.478h4.825zm3.836 3.77V29.9h1.322c.734 0 1.11-.336 1.11-.998 0-.602-.376-.948-1.12-.948h-1.312zm-1.485-3.77h1.485v2.425h1.438c1.563 0 2.47.917 2.47 2.313 0 1.467-.984 2.394-2.566 2.394h-2.827v-7.132zm12.417 7.132h-5.007v-7.132h1.486V29.9h2.663v-5.716h1.486V29.9h.8l-.193 2.904h-1.235zm3.751 0h1.485v-7.132h-1.485zM47.758 14.98c.656 0 1.052-.245 1.052-.795 0-.479-.338-.774-1.1-.774h-1.718v1.569h1.766zm-.395-2.873c.656 0 1.07-.225 1.07-.775 0-.468-.347-.733-.974-.733h-1.467v1.508h1.37zm-2.818-2.884h3.136c.772 0 1.38.224 1.766.632.308.326.463.723.463 1.233 0 .805-.405 1.253-.888 1.538.782.316 1.264.795 1.264 1.773 0 1.304-1.003 1.956-2.528 1.956h-3.213V9.223zm14.501 3.567c0-1.223-.849-2.242-2.045-2.242-1.197 0-2.027.998-2.027 2.241 0 1.223.85 2.242 2.046 2.242 1.196 0 2.026-.999 2.026-2.242m-5.625 0c0-2.027 1.515-3.688 3.599-3.688 2.084 0 3.58 1.64 3.58 3.688 0 2.028-1.515 3.689-3.6 3.689-2.083 0-3.579-1.64-3.579-3.689m12.195 3.566H64.13V9.223h4.718v1.416h-3.232zm6.493-7.132h1.486v2.823h2.74V9.223h1.486v7.132h-1.486v-2.863h-2.74v2.863h-1.486zm9.541 0h5.095v1.396h-3.618v1.447h3.184v1.396h-3.184v1.497h3.666v1.396h-5.142zm10.16 3.964v1.752h1.64c.695 0 1.033-.285 1.033-.907 0-.55-.338-.845-1.042-.845H91.81zm0-1.305h1.785c1.524 0 2.373.877 2.373 2.211 0 1.457-.955 2.262-2.518 2.262h-3.126V9.223h5.181v1.416H91.81v1.243zm12.918.908c0-1.223-.849-2.242-2.045-2.242s-2.026.998-2.026 2.241c0 1.223.849 2.242 2.045 2.242 1.197 0 2.026-.999 2.026-2.242m-5.625 0c0-2.027 1.515-3.688 3.6-3.688 2.083 0 3.579 1.64 3.579 3.688 0 2.028-1.515 3.689-3.599 3.689-2.084 0-3.58-1.64-3.58-3.689m13.373.031c.743 0 1.177-.469 1.177-1.1 0-.703-.463-1.08-1.206-1.08h-1.149v2.18h1.178zm-2.663-3.597h2.759c1.611 0 2.586 1.009 2.586 2.486 0 1.65-1.216 2.507-2.73 2.507h-1.13v2.14h-1.485V9.222zm13.661 7.132h-5.007V9.223h1.485v5.716h2.664V9.223h1.485v5.716h.801l-.193 2.904h-1.235zm4.746 0h1.487V9.223h-1.486z"/></g></svg>