<svg width="18" height="19" viewBox="0 0 18 19" xmlns="http://www.w3.org/2000/svg"><title>team</title><path d="M14.523 13.424a1.65 1.65 0 0 0 1.636-1.652 1.65 1.65 0 0 0-1.636-1.652 1.65 1.65 0 0 0-1.637 1.652 1.65 1.65 0 0 0 1.637 1.652M9 3.304a1.65 1.65 0 0 0 1.636-1.652A1.65 1.65 0 0 0 9 0a1.65 1.65 0 0 0-1.636 1.652A1.65 1.65 0 0 0 9 3.304m5.523 10.739c-.9 0-1.723.157-2.359.485-.636.327-1.119.879-1.119 1.574v2.485c0 .216.195.413.41.413h6.136a.427.427 0 0 0 .409-.413v-2.485c0-.695-.483-1.247-1.119-1.574-.636-.328-1.458-.485-2.358-.485m0 1.24c.725 0 1.364.124 1.8.348.224.115.45.306.45.471v1.659h-4.5v-1.659c0-.165.225-.356.449-.47.436-.225 1.076-.35 1.8-.35M3.477 14.043c-.9 0-1.722.157-2.358.485C.483 14.855 0 15.407 0 16.102v2.485c0 .216.195.413.41.413h6.135c.215 0 .41-.197.41-.413v-2.485c0-.695-.483-1.247-1.12-1.574-.635-.328-1.458-.485-2.358-.485m0 1.24c.725 0 1.365.124 1.801.348.224.115.45.306.45.471v1.659h-4.5v-1.659c0-.165.225-.356.448-.47.437-.225 1.076-.35 1.801-.35m7.761-1.578c.167-.277.046-.688-.244-.829l-1.415-.848v-1.514c.007-.331-.316-.63-.642-.594a.604.604 0 0 0-.516.594v1.514l-1.41.85c-.29.14-.41.55-.244.828a.6.6 0 0 0 .841.166L9 13.031l1.398.84a.6.6 0 0 0 .84-.167M9 3.924c-.9 0-1.723.156-2.359.484-.636.328-1.118.879-1.118 1.575v2.484c0 .217.195.413.409.413h6.136c.214 0 .41-.196.41-.413V5.983c0-.696-.483-1.247-1.12-1.575C10.724 4.08 9.9 3.924 9 3.924m0 1.239c.725 0 1.365.124 1.8.349.224.115.45.305.45.47v1.66h-4.5v-1.66c0-.165.226-.355.45-.47.435-.225 1.075-.349 1.8-.349m-5.523 8.261a1.65 1.65 0 0 0 1.637-1.652 1.65 1.65 0 0 0-1.637-1.652 1.65 1.65 0 0 0-1.636 1.652 1.65 1.65 0 0 0 1.636 1.652" fill="#FFF" fill-rule="evenodd"/></svg>