<svg width="194" height="364" viewBox="0 0 194 364" xmlns="http://www.w3.org/2000/svg" xmlns:xlink="http://www.w3.org/1999/xlink"><title>pozhar</title><defs><path d="M.298 5.165l4.926 4.875a9.785 9.785 0 0 1 6.672-2.614c2.581 0 4.928.994 6.678 2.62l4.88-4.83A16.501 16.501 0 0 0 11.85.471 16.498 16.498 0 0 0 .298 5.165z" id="a"/><path d="M.298 5.505a16.502 16.502 0 0 0 11.605 4.745 16.5 16.5 0 0 0 11.55-4.694L18.528.68a9.787 9.787 0 0 1-6.672 2.613A9.785 9.785 0 0 1 5.177.676L.298 5.505z" id="c"/></defs><g fill="none" fill-rule="evenodd"><path d="M193.138 230.23s-22.483 37.114-88.22 39.75c-2.413.093-4.889.144-7.421.144-2.052 0-4.066-.031-6.045-.098C24.576 267.865.466 230.23.466 230.23s85.978-56.74 192.672 0" fill="#3C3C3C"/><path d="M104.194 223.693v46.287c-2.509.093-4.427.144-6.96.144-2.052 0-3.074-.031-5.582-.098v-46.333h12.542z" fill="#5C5D5E"/><path d="M60.268 213.037c0 8.627 16.797 15.62 37.518 15.62 20.72 0 37.518-6.993 37.518-15.62 0-8.626-16.798-17.881-37.518-17.881-20.72 0-37.518 9.255-37.518 17.881" fill="#1A1A1A"/><path d="M115.481 179.976v23.53c0 .85-4.206 6.266-18.015 6.266-11.652 0-17.102-4.379-18.356-6.375v-23.421h36.371z" fill="#FFA685"/><path d="M23.085 100.33l-5.007 90.698s79.417-21.663 157.108 2.407l-6.907-93.879-145.194.773z" fill="#282828"/><path d="M115.481 179.976V202.4c-18.812 4.684-32.413-4.354-36.442-7.655-.047-.036.071-.071.071-.108V181.18c0-.005.117-.293.2-.298 1.828-.108 5.657-.906 10.107-.906h26.064z" fill="#9E6A5E"/><path d="M15.057 98.588c2.451 3.748 26.414 17.99 82.352 17.99 55.936 0 77.665-13.378 78.64-15.475.973-2.097-21.41-23.986-78.64-23.986-57.232 0-84.806 17.724-82.352 21.471" fill="#282828"/><path d="M163.792 83.771c0 .976-.021 1.945-.051 2.91-12.996-5.969-27.576-8.31-41.918-9.285-21.198-1.439-43.056-1.315-64.016 2.316-9.214 1.599-18.268 4.044-26.928 7.506a95.267 95.267 0 0 1-.067-3.447c0-9.366 1.399-18.347 3.972-26.674 2.88-9.34 7.23-17.851 12.721-25.146C59.687 15.77 77.478 5.57 97.3 5.57c20.47 0 38.778 10.875 50.976 27.985 5.386 7.557 9.58 16.33 12.244 25.92 2.123 7.644 3.273 15.815 3.273 24.295" fill="#282828"/><path d="M32.132 129.088c.945 5.909 5.719 10.062 10.662 9.277 4.944-.784 8.184-6.209 7.24-12.117-.946-5.908-5.72-10.061-10.663-9.277-4.943.785-8.185 6.21-7.24 12.117m130.985 0c-.945 5.909-5.719 10.062-10.661 9.277-4.944-.784-8.185-6.209-7.24-12.117.945-5.908 5.718-10.061 10.662-9.277 4.943.785 8.185 6.21 7.24 12.117" fill="#FFA685"/><path d="M160.519 59.476c-13.503-5.401-27.492-9.083-41.777-10.987-16.346-2.177-33.138-2.048-49.914.381-13.372 1.94-25.197 5.185-34.044 8.228 2.88-9.342 7.23-17.853 12.722-25.147a209.23 209.23 0 0 1 17.474-3.368c18.77-2.8 37.597-3.007 55.953-.619a194.164 194.164 0 0 1 27.341 5.591c5.387 7.557 9.582 16.332 12.245 25.92" fill="#EFE20C"/><path d="M150.324 80.728s1.406 58.926-6.56 77.89c-7.08 16.85-21.236 26.22-42.989 36.022 0 0-38.846-10.145-48.168-33.873-9.322-23.728-7.079-79.782-7.079-79.782l104.796-.257z" fill="#FFA685"/><path d="M125.104 115.786c-.61 2.46-3.105 3.964-5.579 3.357a4.587 4.587 0 0 1-3.37-5.556 4.609 4.609 0 0 1 5.578-3.357 4.589 4.589 0 0 1 3.371 5.556m-45.234 0c-.609 2.46-3.104 3.964-5.578 3.357a4.587 4.587 0 0 1-3.37-5.556 4.609 4.609 0 0 1 5.578-3.357 4.589 4.589 0 0 1 3.37 5.556" fill="#0E0F2D"/><path d="M98.316 159.562c-8.989 0-15.465-3.862-15.87-4.11a3.088 3.088 0 0 1-1.024-4.255 3.114 3.114 0 0 1 4.266-1.026c.503.301 12.212 7.154 25.115-.174a3.114 3.114 0 0 1 4.239 1.156 3.088 3.088 0 0 1-1.161 4.22c-5.534 3.144-10.89 4.189-15.565 4.189" fill="#EB664E"/><path d="M139.449 77.89l-84.247-2.578c-.746 2.073-2.163 6.41-2.578 13.197 14.834-1.527 39.138-3.267 60.192-.818 11.545 1.342 22.518 3.806 30.578 6.08.005-6.88-1.805-12.073-2.583-15.277l-1.362-.603z" fill="#9E6A5E"/><path d="M44.708 122.638c4.237-.33 2.848-4.657 2.848-13.797 0-7.738 5.233-10.698 5.18-13.799a90.25 90.25 0 0 1 .168-6.82c-6.173.635-10.75 1.335-12.841 1.635-.11 5.936-.275 13.454-.275 16.017 0 4.513-.042 17.152 4.92 16.764z" fill="#935F37"/><path d="M55.197 75.053L40.109 85.061c-.025 1.341-.057 3.051-.088 4.83 2.093-.299 6.67-1.014 12.845-1.649.414-6.789 1.59-10.69 2.336-13.189h-.005z" fill="#764B29"/><path d="M155.184 97.678a160.812 160.812 0 0 0-12.83-4.188c0 .505-.004 1.027-.014 1.552-.053 3.1 5.178 6.061 5.178 13.799 0 9.14-1.388 13.468 2.85 13.797 4.961.388 4.92-12.25 4.92-16.764 0-1.542-.046-4.704-.104-8.196" fill="#935F37"/><path d="M154.935 84.736l-14.124-6.242c.777 3.204 1.549 8.114 1.544 14.995a161.152 161.152 0 0 1 12.829 4.189c-.083-4.813-.197-10.254-.249-12.942" fill="#764B29"/><path d="M98.708 74.858c9.38.193 19.026-.046 28.164 2.229 4.454-7.958 7.094-17.783 7.094-28.427 0-26.494-16.31-47.972-36.428-47.972-20.12 0-36.429 21.478-36.429 47.972 0 10.195 2.417 19.646 6.535 27.416 10.27-1.49 20.682-1.43 31.064-1.218" fill="#636363"/><path d="M42.766 78.8h106.695S135.65 65.733 97.667 65.733c-37.982 0-54.9 13.067-54.9 13.067" fill="#3A3A3A"/><path fill="#282828" d="M97.667 5.076l20.718 13.818v27.637l-20.718 13.82-20.718-13.82V18.894z"/><path d="M15.14 94.977c2.28-6.54 9.294-13.462 34.012-19.68 28.163-7.088 69.034-6.79 97.945 1.593 25.988 7.537 29.529 20.292 29.522 21.945-.007 1.652-.674 3.908-1.82 2.642-1.222-1.35-14.405-9.746-29.676-13.388-14.247-3.396-33.16-8.852-70.3-5.588-44.282 3.893-59.111 17.434-59.111 17.434s-1.907-1.126-.571-4.958z" fill="#636363"/><g transform="translate(85.96 16.415)"><mask id="b" fill="#fff"><use xlink:href="#a"/></mask><path fill="#E61F27" mask="url(#b)" d="M-.52 10.86h24.793V-.344H-.52z"/></g><g transform="translate(85.96 36.4)"><mask id="d" fill="#fff"><use xlink:href="#c"/></mask><path fill="#E61F27" mask="url(#d)" d="M-.52 11.066h24.793V-.14H-.52z"/></g><path d="M12.02 355.825c0 4 36.29 7.24 81.056 7.24 44.765 0 81.054-3.24 81.054-7.24s-36.289-7.24-81.054-7.24c-44.766 0-81.056 3.24-81.056 7.24" fill="#DCDDDE"/></g></svg>