<?xml version="1.0" encoding="UTF-8"?>
<svg width="130px" height="40px" viewBox="0 0 130 40" version="1.1" xmlns="http://www.w3.org/2000/svg" xmlns:xlink="http://www.w3.org/1999/xlink">
    <!-- Generator: Sketch 41.1 (35376) - http://www.bohemiancoding.com/sketch -->
    <title>Logo</title>
    <desc>Created with Sketch.</desc>
    <defs></defs>
    <g id="Page-1" stroke="none" stroke-width="1" fill="none" fill-rule="evenodd">
        <g id="Mobile-Home" transform="translate(-15.000000, -9.000000)" fill="#FEFEFE">
            <g id="Heder">
                <g id="Logo" transform="translate(15.000000, 9.000000)">
                    <g transform="translate(0.000000, 0.586268)">
                        <path d="M28.37389,33.2114283 C25.1060209,36.4584828 20.8581197,38.2395545 16.3508841,38.2395545 C11.8435572,38.2395545 7.59556468,36.4584828 4.3277869,33.2114283 L6.4354949,30.9858595 C9.13961728,33.6394482 12.6393543,35.0939645 16.3508841,35.0939645 C20.0623226,35.0939645 23.5620596,33.6394482 26.2662732,30.9858595 L28.37389,33.2114283 L28.37389,33.2114283 Z M24.0402131,27.0000321 L22.7795851,25.6688534 C24.1091074,24.0746189 24.9169495,21.9841432 24.9169495,19.6979655 C24.9169495,17.4116915 24.1091074,15.3212159 22.7795851,13.7269813 L24.0401218,12.395899 C25.691029,14.3324917 26.6973414,16.8933846 26.6973414,19.6979655 C26.6973414,22.5026429 25.691029,25.0634394 24.0402131,27.0000321 L24.0402131,27.0000321 Z M8.66155502,12.395899 L9.92209179,13.7269813 C8.59256951,15.3212159 7.78481857,17.4116915 7.78481857,19.6979655 C7.78481857,21.9841432 8.59256951,24.0746189 9.92209179,25.6688534 L8.66146377,27.0000321 C7.01055663,25.0634394 6.00433548,22.5026429 6.00433548,19.6979655 C6.00433548,16.8933846 7.01064788,14.3324917 8.66155502,12.395899 L8.66155502,12.395899 Z M16.3508841,27.5871383 C12.2312813,27.5871383 8.87982662,24.0480242 8.87982662,19.6979655 C8.87982662,15.3478105 12.2312813,11.8087928 16.3508841,11.8087928 C20.4703956,11.8087928 23.8219415,15.3478105 23.8219415,19.6979655 C23.8219415,24.0480242 20.4703956,27.5871383 16.3508841,27.5871383 L16.3508841,27.5871383 Z M22.8820596,27.4123458 C21.0836001,29.1144044 18.7849045,30.0454104 16.3508841,30.0454104 C13.9167724,30.0454104 11.6180768,29.1144044 9.81961728,27.4123458 L10.6929775,26.4901083 L10.6877762,26.478449 C12.1986135,27.8870991 14.1816731,28.7434281 16.3508841,28.7434281 C18.5188175,28.7434281 20.5009646,27.8880627 22.0115282,26.4807616 L22.0087907,26.4901083 L22.8820596,27.4123458 L22.8820596,27.4123458 Z M22.0136269,12.917193 C20.5028808,11.5086393 18.5199125,10.652503 16.3508841,10.652503 C14.1813081,10.652503 12.1979748,11.5090247 10.6870462,12.9180602 L10.6929775,12.9058228 L9.81961728,11.9835853 C11.618168,10.2814303 13.9168637,9.35052069 16.3508841,9.35052069 C18.7849045,9.35052069 21.0836001,10.2814303 22.8820596,11.9835853 L22.0087907,12.9058228 L22.0136269,12.917193 L22.0136269,12.917193 Z M4.3277869,6.18450281 C7.59565593,2.93744829 11.8435572,1.15637654 16.3508841,1.15637654 C20.8581197,1.15637654 25.1060209,2.93744829 28.37389,6.18450281 L26.266182,8.41007163 C23.5620596,5.7563865 20.0623226,4.30196663 16.3508841,4.30196663 C12.6393543,4.30196663 9.13970853,5.7563865 6.4354949,8.41007163 L4.3277869,6.18450281 L4.3277869,6.18450281 Z M32.1711041,19.6979655 C32.1711041,15.2927904 30.5556023,11.286728 27.9171804,8.30195854 L29.9283451,6.17823957 L29.5411685,5.76949112 C26.0179801,2.04903228 21.3336269,8.67217363e-05 16.3508841,8.67217363e-05 C11.3681412,8.67217363e-05 6.68369673,2.04903228 3.16050832,5.76949112 L2.77333172,6.17823957 L4.78458776,8.30205489 C2.14607461,11.286728 0.530663983,15.2927904 0.530663983,19.6979655 C0.530663983,24.1030443 2.14607461,28.1091067 4.78458776,31.0938762 L2.77333172,33.2175952 L3.16050832,33.62644 C6.68369673,37.3468988 11.3681412,39.3958444 16.3508841,39.3958444 C21.3335357,39.3958444 26.0179801,37.3468988 29.5411685,33.62644 L29.9283451,33.2175952 L27.9171804,31.0938762 C30.5556023,28.1092031 32.1711041,24.1030443 32.1711041,19.6979655 L32.1711041,19.6979655 Z" id="Fill-1"></path>
                        <path d="M15.063182,25.1225547 C13.7626774,24.8056349 11.061475,22.9041163 11.3615985,20.632874 C11.661722,18.3615354 12.4620816,18.5200435 13.0123231,16.9882485 C13.0123231,16.9882485 13.5625647,17.6220881 13.5625647,18.5728474 C13.5625647,18.5728474 16.4637885,16.5128207 16.0635631,13.8190509 C16.0635631,13.8190509 18.6646634,14.4528904 19.214905,17.9390078 C19.214905,17.9390078 20.3153881,16.8826407 20.0152646,15.8261773 C20.0152646,15.8261773 21.8660107,18.0446156 21.4658765,20.632874 C21.0656511,23.2210361 19.4150177,24.4359112 18.0644165,24.9112427 C18.0644165,24.9112427 20.2653827,21.3195175 17.4141643,18.4144357 C17.4141643,18.4144357 17.7642931,20.2102501 16.5137939,21.1610094 C16.5137939,21.1610094 16.4136919,20.2102501 15.8635416,19.8933303 C15.8635416,19.8933303 15.0131766,21.0554016 14.4629351,22.0589648 C13.9126935,23.062528 14.212817,24.4359112 15.063182,25.1225547" id="Fill-3"></path>
                        <path d="M47.0057624,25.0140847 L47.0057624,25.7375109 C47.0057624,27.2453465 46.7838608,28.3253695 46.3979067,29.3137109 L49.0029744,29.3137109 L49.0029744,25.0140847 L47.0057624,25.0140847 Z M44.1980761,29.3137109 L44.8348074,29.3137109 C45.3365575,28.0808165 45.57784,26.8683876 45.57784,24.4334005 L45.57784,23.5979306 L50.4888438,23.5979306 L50.4888438,29.3137109 L51.2994159,29.3137109 L51.1063899,32.2173384 L49.8617051,32.2173384 L49.8617051,30.729865 L45.635689,30.729865 L45.539176,32.2173384 L44.1980761,32.2173384 L44.1980761,29.3137109 Z" id="Fill-5-Copy-2"></path>
                        <path d="M58.5809186,27.2861743 C58.5809186,26.0635126 57.7317805,25.0446796 56.5354501,25.0446796 C55.3390218,25.0446796 54.5091667,26.0431504 54.5091667,27.2861743 C54.5091667,28.5087325 55.3583048,29.5276689 56.5547331,29.5276689 C57.7510635,29.5276689 58.5809186,28.5290947 58.5809186,27.2861743 M52.9557578,27.2861743 C52.9557578,25.2586377 54.4706007,23.5979306 56.5547331,23.5979306 C58.6387677,23.5979306 60.1343275,25.2382755 60.1343275,27.2861743 C60.1343275,29.3136075 58.6194847,30.974418 56.5354501,30.974418 C54.4513176,30.974418 52.9557578,29.3339697 52.9557578,27.2861743" id="Fill-7-Copy"></path>
                        <path d="M64.5466445,27.5612189 L64.5466445,29.3137109 L66.1868759,29.3137109 C66.8815541,29.3137109 67.2193496,29.0283301 67.2193496,28.4069216 C67.2193496,27.856729 66.8815541,27.5612189 66.1772834,27.5612189 L64.5466445,27.5612189 Z M64.5466445,26.2571085 L66.3316454,26.2571085 C67.8560808,26.2571085 68.7051211,27.1333028 68.7051211,28.4680082 C68.7051211,29.92499 67.7499753,30.729865 66.1868759,30.729865 L63.0607751,30.729865 L63.0607751,23.5979306 L68.2420349,23.5979306 L68.2420349,25.0140847 L64.5466445,25.0140847 L64.5466445,26.2571085 Z" id="Fill-9-Copy"></path>
                        <path d="M73.1341358,27.1944927 C73.8770705,27.1944927 74.3112811,26.7258523 74.3112811,26.0941076 C74.3112811,25.3911469 73.848097,25.0140847 73.1051623,25.0140847 L71.9569905,25.0140847 L71.9569905,27.1944927 L73.1341358,27.1944927 Z M70.4711211,23.5979306 L73.2306488,23.5979306 C74.8419067,23.5979306 75.8164335,24.6066341 75.8164335,26.0839782 C75.8164335,27.7344525 74.6007221,28.5902847 73.0858793,28.5902847 L71.9569905,28.5902847 L71.9569905,30.729865 L70.4711211,30.729865 L70.4711211,23.5979306 Z" id="Fill-11-Copy"></path>
                        <path d="M83.5065301,27.2861743 C83.5065301,26.0635126 82.6574899,25.0446796 81.4610616,25.0446796 C80.2646333,25.0446796 79.4348761,26.0431504 79.4348761,27.2861743 C79.4348761,28.5087325 80.2839163,29.5276689 81.4803446,29.5276689 C82.6767729,29.5276689 83.5065301,28.5290947 83.5065301,27.2861743 M77.8814672,27.2861743 C77.8814672,25.2586377 79.39631,23.5979306 81.4803446,23.5979306 C83.5644771,23.5979306 85.059939,25.2382755 85.059939,27.2861743 C85.059939,29.3136075 83.545194,30.974418 81.4610616,30.974418 C79.377027,30.974418 77.8814672,29.3339697 77.8814672,27.2861743" id="Fill-13-Copy"></path>
                        <path d="M90.52574,29.3543319 C91.1818521,29.3543319 91.5773988,29.1098823 91.5773988,28.5596897 C91.5773988,28.0808165 91.2397012,27.7853063 90.4774835,27.7853063 L88.7600221,27.7853063 L88.7600221,29.3543319 L90.52574,29.3543319 Z M90.1300955,26.4811959 C90.7862076,26.4811959 91.2011352,26.2570051 91.2011352,25.7069159 C91.2011352,25.2382755 90.853845,24.9732569 90.2266085,24.9732569 L88.7600221,24.9732569 L88.7600221,26.4811959 L90.1300955,26.4811959 Z M87.3128166,23.5979306 L90.44851,23.5979306 C91.2204182,23.5979306 91.8282738,23.822018 92.2142279,24.2295719 C92.522952,24.5555736 92.6773141,24.9528947 92.6773141,25.4623629 C92.6773141,26.2672379 92.272077,26.7156195 91.7897078,27.0007935 C92.5712085,27.3166659 93.0536756,27.7955391 93.0536756,28.7736477 C93.0536756,30.0777581 92.0501754,30.729865 90.52574,30.729865 L87.3128166,30.729865 L87.3128166,23.5979306 Z" id="Fill-15-Copy"></path>
                        <path d="M100.348324,27.2861743 C100.348324,26.0635126 99.4991854,25.0446796 98.302855,25.0446796 C97.1064267,25.0446796 96.2765716,26.0431504 96.2765716,27.2861743 C96.2765716,28.5087325 97.1257097,29.5276689 98.322138,29.5276689 C99.5184684,29.5276689 100.348324,28.5290947 100.348324,27.2861743 M94.7231627,27.2861743 C94.7231627,25.2586377 96.2380055,23.5979306 98.322138,23.5979306 C100.406173,23.5979306 101.901732,25.2382755 101.901732,27.2861743 C101.901732,29.3136075 100.38689,30.974418 98.302855,30.974418 C96.2187225,30.974418 94.7231627,29.3339697 94.7231627,27.2861743" id="Fill-17-Copy"></path>
                        <path d="M109.887506,23.5979306 L109.887506,30.729865 L108.401637,30.729865 L108.401637,25.0140847 L106.452681,25.0140847 L106.452681,25.5541478 C106.452681,29.7517563 105.806161,30.8215465 104.262443,30.8215465 C104.02116,30.8215465 103.66418,30.7808221 103.480844,30.729865 L103.577357,29.435884 C103.644897,29.4461168 103.712436,29.4563496 103.808949,29.4563496 C104.609831,29.4563496 105.063227,28.9162864 105.063227,25.0752746 L105.063227,23.5979306 L109.887506,23.5979306 Z" id="Fill-19-Copy"></path>
                        <path d="M113.724395,27.3677264 L113.724395,29.3137109 L115.046212,29.3137109 C115.779554,29.3137109 116.155818,28.9774763 116.155818,28.3152401 C116.155818,27.7141937 115.779554,27.3677264 115.03662,27.3677264 L113.724395,27.3677264 Z M112.238526,23.5979306 L113.724395,23.5979306 L113.724395,26.0227883 L115.162106,26.0227883 C116.725108,26.0227883 117.632095,26.939707 117.632095,28.3356022 C117.632095,29.8028169 116.647878,30.729865 115.065593,30.729865 L112.238526,30.729865 L112.238526,23.5979306 Z" id="Fill-21-Copy"></path>
                        <polygon id="Fill-23-Copy" points="124.656487 30.729865 119.648872 30.729865 119.648872 23.5979306 121.134741 23.5979306 121.134741 29.3137109 123.797756 29.3137109 123.797756 23.5979306 125.283625 23.5979306 125.283625 29.3137109 126.084409 29.3137109 125.891481 32.2174418 124.656487 32.2174418"></polygon>
                        <polygon id="Fill-25-Copy" points="128.406554 30.729865 129.892423 30.729865 129.892423 23.5979306 128.406554 23.5979306"></polygon>
                        <path d="M47.7581745,14.3935022 C48.4142866,14.3935022 48.8098333,14.1490526 48.8098333,13.59886 C48.8098333,13.1199868 48.4721357,12.8244767 47.709918,12.8244767 L45.9924566,12.8244767 L45.9924566,14.3935022 L47.7581745,14.3935022 Z M47.36253,11.5203663 C48.0186421,11.5203663 48.4335697,11.2961755 48.4335697,10.7460863 C48.4335697,10.2774458 48.0862795,10.0124273 47.459043,10.0124273 L45.9924566,10.0124273 L45.9924566,11.5203663 L47.36253,11.5203663 Z M44.5452511,8.6371009 L47.6809445,8.6371009 C48.4528527,8.6371009 49.0608062,8.86118835 49.4466624,9.26874222 C49.7553865,9.59474398 49.9097486,9.99206508 49.9097486,10.5015333 C49.9097486,11.3064082 49.5046094,11.7547899 49.0221423,12.0399639 C49.803643,12.3558362 50.2861101,12.8347094 50.2861101,13.8128181 C50.2861101,15.1169285 49.2826099,15.7690353 47.7581745,15.7690353 L44.5452511,15.7690353 L44.5452511,8.6371009 Z" id="Fill-27"></path>
                        <path d="M59.0461128,12.2030268 C59.0461128,10.9803651 58.1970725,9.96153213 57.0006442,9.96153213 C55.8042159,9.96153213 54.9744587,10.960003 54.9744587,12.2030268 C54.9744587,13.425585 55.823499,14.4445214 57.0199272,14.4445214 C58.2163555,14.4445214 59.0461128,13.4459472 59.0461128,12.2030268 M53.4210498,12.2030268 C53.4210498,10.1754902 54.9358927,8.51478306 57.0199272,8.51478306 C59.1040597,8.51478306 60.5995217,10.155128 60.5995217,12.2030268 C60.5995217,14.23046 59.0847767,15.8912705 57.0006442,15.8912705 C54.9166096,15.8912705 53.4210498,14.2508222 53.4210498,12.2030268" id="Fill-28"></path>
                        <polygon id="Fill-29" points="65.6159655 15.768994 64.1300961 15.768994 64.1300961 8.63705956 68.8481719 8.63705956 68.8481719 10.0532137 65.6159655 10.0532137"></polygon>
                        <polygon id="Fill-30" points="72.1088623 8.63705956 73.5947317 8.63705956 73.5947317 11.4592384 76.3348784 11.4592384 76.3348784 8.63705956 77.8207478 8.63705956 77.8207478 15.768994 76.3348784 15.768994 76.3348784 12.9060908 73.5947317 12.9060908 73.5947317 15.768994 72.1088623 15.768994"></polygon>
                        <polygon id="Fill-31" points="81.6505712 8.63705956 86.7450085 8.63705956 86.7450085 10.0328515 83.1267502 10.0328515 83.1267502 11.4796006 86.3107979 11.4796006 86.3107979 12.8754958 83.1267502 12.8754958 83.1267502 14.3732021 86.7931671 14.3732021 86.7931671 15.768994 81.6505712 15.768994"></polygon>
                        <path d="M91.8098948,12.6003272 L91.8098948,14.3528192 L93.4501262,14.3528192 C94.1448044,14.3528192 94.4825999,14.0674385 94.4825999,13.4460299 C94.4825999,12.8958374 94.1448044,12.6003272 93.4405337,12.6003272 L91.8098948,12.6003272 Z M91.8098948,11.2962168 L93.5948957,11.2962168 C95.119429,11.2962168 95.9683714,12.1724111 95.9683714,13.5071165 C95.9683714,14.9640983 95.0132256,15.7689733 93.4501262,15.7689733 L90.3240254,15.7689733 L90.3240254,8.63703888 L95.5052852,8.63703888 L95.5052852,10.053193 L91.8098948,10.053193 L91.8098948,11.2962168 Z" id="Fill-32"></path>
                        <path d="M104.728492,12.2030268 C104.728492,10.9803651 103.879451,9.96153213 102.683121,9.96153213 C101.486595,9.96153213 100.656837,10.960003 100.656837,12.2030268 C100.656837,13.425585 101.505878,14.4445214 102.702306,14.4445214 C103.898734,14.4445214 104.728492,13.4459472 104.728492,12.2030268 M99.1034286,12.2030268 C99.1034286,10.1754902 100.618271,8.51478306 102.702306,8.51478306 C104.786438,8.51478306 106.2819,10.155128 106.2819,12.2030268 C106.2819,14.23046 104.767155,15.8912705 102.683121,15.8912705 C100.598988,15.8912705 99.1034286,14.2508222 99.1034286,12.2030268" id="Fill-33"></path>
                        <path d="M112.475617,12.2336114 C113.218551,12.2336114 113.652664,11.764971 113.652664,11.1332263 C113.652664,10.4302656 113.189578,10.0532033 112.446643,10.0532033 L111.298471,10.0532033 L111.298471,12.2336114 L112.475617,12.2336114 Z M109.812602,8.63704922 L112.572032,8.63704922 C114.18329,8.63704922 115.157817,9.64575282 115.157817,11.1230969 C115.157817,12.7735712 113.942105,13.6294033 112.42736,13.6294033 L111.298471,13.6294033 L111.298471,15.7689836 L109.812602,15.7689836 L109.812602,8.63704922 Z" id="Fill-34"></path>
                        <polygon id="Fill-35" points="123.474202 15.768994 118.466685 15.768994 118.466685 8.63705956 119.952457 8.63705956 119.952457 14.3528399 122.615569 14.3528399 122.615569 8.63705956 124.101341 8.63705956 124.101341 14.3528399 124.902222 14.3528399 124.709196 17.2565708 123.474202 17.2565708"></polygon>
                        <polygon id="Fill-36" points="128.220547 15.7690147 129.706514 15.7690147 129.706514 8.63708023 128.220547 8.63708023"></polygon>
                    </g>
                </g>
            </g>
        </g>
    </g>
</svg>