<?xml version="1.0" encoding="UTF-8" standalone="no"?>
<svg width="129px" height="40px" viewBox="0 0 129 40" version="1.1" xmlns="http://www.w3.org/2000/svg" xmlns:xlink="http://www.w3.org/1999/xlink">
    <!-- Generator: Sketch 43.1 (39012) - http://www.bohemiancoding.com/sketch -->
    <title>Group</title>
    <desc>Created with Sketch.</desc>
    <defs></defs>
    <g id="Page-1" stroke="none" stroke-width="1" fill="none" fill-rule="evenodd">
        <g id="Artboard-2" fill="#FEFEFE">
            <g id="Group">
                <path d="M27.843226,33.7976092 C24.575357,37.0446637 20.3274557,38.8257354 15.8202201,38.8257354 C11.3128932,38.8257354 7.0649007,37.0446637 3.79712292,33.7976092 L5.90483092,31.5720403 C8.6089533,34.2256291 12.1086903,35.6801453 15.8202201,35.6801453 C19.5316586,35.6801453 23.0313956,34.2256291 25.7356092,31.5720403 L27.843226,33.7976092 L27.843226,33.7976092 Z M23.5095491,27.586213 L22.2489211,26.2550343 C23.5784434,24.6607997 24.3862856,22.5703241 24.3862856,20.2841464 C24.3862856,17.9978724 23.5784434,15.9073968 22.2489211,14.3131622 L23.5094579,12.9820799 C25.160365,14.9186726 26.1666774,17.4795655 26.1666774,20.2841464 C26.1666774,23.0888237 25.160365,25.6496203 23.5095491,27.586213 L23.5095491,27.586213 Z M8.13089104,12.9820799 L9.3914278,14.3131622 C8.06190553,15.9073968 7.25415459,17.9978724 7.25415459,20.2841464 C7.25415459,22.5703241 8.06190553,24.6607997 9.3914278,26.2550343 L8.13079979,27.586213 C6.47989265,25.6496203 5.4736715,23.0888237 5.4736715,20.2841464 C5.4736715,17.4795655 6.4799839,14.9186726 8.13089104,12.9820799 L8.13089104,12.9820799 Z M15.8202201,28.1733191 C11.7006173,28.1733191 8.34916264,24.6342051 8.34916264,20.2841464 C8.34916264,15.9339914 11.7006173,12.3949737 15.8202201,12.3949737 C19.9397316,12.3949737 23.2912775,15.9339914 23.2912775,20.2841464 C23.2912775,24.6342051 19.9397316,28.1733191 15.8202201,28.1733191 L15.8202201,28.1733191 Z M22.3513956,27.9985267 C20.5529361,29.7005853 18.2542405,30.6315913 15.8202201,30.6315913 C13.3861084,30.6315913 11.0874128,29.7005853 9.2889533,27.9985267 L10.1623135,27.0762892 L10.1571122,27.0646299 C11.6679495,28.47328 13.6510091,29.329609 15.8202201,29.329609 C17.9881535,29.329609 19.9703006,28.4742436 21.4808642,27.0669425 L21.4781267,27.0762892 L22.3513956,27.9985267 L22.3513956,27.9985267 Z M21.482963,13.5033739 C19.9722169,12.0948202 17.9892485,11.2386839 15.8202201,11.2386839 C13.6506441,11.2386839 11.6673108,12.0952056 10.1563822,13.5042411 L10.1623135,13.4920037 L9.2889533,12.5697662 C11.087504,10.8676112 13.3861997,9.93670157 15.8202201,9.93670157 C18.2542405,9.93670157 20.5529361,10.8676112 22.3513956,12.5697662 L21.4781267,13.4920037 L21.482963,13.5033739 L21.482963,13.5033739 Z M3.79712292,6.77068369 C7.06499195,3.52362917 11.3128932,1.74255742 15.8202201,1.74255742 C20.3274557,1.74255742 24.575357,3.52362917 27.843226,6.77068369 L25.735518,8.99625252 C23.0313956,6.34256739 19.5316586,4.88814751 15.8202201,4.88814751 C12.1086903,4.88814751 8.60904455,6.34256739 5.90483092,8.99625252 L3.79712292,6.77068369 L3.79712292,6.77068369 Z M31.6404402,20.2841464 C31.6404402,15.8789713 30.0249383,11.8729089 27.3865164,8.88813942 L29.3976812,6.76442046 L29.0105046,6.35567201 C25.4873162,2.63521316 20.802963,0.586267606 15.8202201,0.586267606 C10.8374772,0.586267606 6.15303274,2.63521316 2.62984434,6.35567201 L2.24266774,6.76442046 L4.25392378,8.88823578 C1.61541063,11.8729089 0,15.8789713 0,20.2841464 C0,24.6892252 1.61541063,28.6952876 4.25392378,31.6800571 L2.24266774,33.803776 L2.62984434,34.2126209 C6.15303274,37.9330797 10.8374772,39.9820253 15.8202201,39.9820253 C20.8028717,39.9820253 25.4873162,37.9330797 29.0105046,34.2126209 L29.3976812,33.803776 L27.3865164,31.6800571 C30.0249383,28.695384 31.6404402,24.6892252 31.6404402,20.2841464 L31.6404402,20.2841464 Z" id="Fill-1-Copy-4"></path>
                <path d="M13.7246749,24.8897714 C12.4241704,24.5728517 9.72296801,22.6713331 10.0230915,20.4000908 C10.3232149,18.1287522 11.1235746,18.2872602 11.6738161,16.7554653 C11.6738161,16.7554653 12.2240577,17.3893048 12.2240577,18.3400641 C12.2240577,18.3400641 15.1252815,16.2800374 14.725056,13.5862676 C14.725056,13.5862676 17.3261564,14.2201071 17.876398,17.7062246 C17.876398,17.7062246 18.9768811,16.6498575 18.6767576,15.593394 C18.6767576,15.593394 20.5275037,17.8118324 20.1273695,20.4000908 C19.7271441,22.9882528 18.0765107,24.203128 16.7259095,24.6784595 C16.7259095,24.6784595 18.9268757,21.0867342 16.0756572,18.1816524 C16.0756572,18.1816524 16.425786,19.9774669 15.1752869,20.9282262 C15.1752869,20.9282262 15.0751849,19.9774669 14.5250346,19.6605471 C14.5250346,19.6605471 13.6746696,20.8226184 13.124428,21.8261816 C12.5741865,22.8297448 12.8743099,24.203128 13.7246749,24.8897714" id="Fill-3-Copy-2"></path>
                <g id="Group-4-Copy" transform="translate(43.000000, 8.586268)">
                    <path d="M3.00576239,2.01408466 L3.00576239,2.73751088 C3.00576239,4.24534653 2.78386082,5.32536946 2.39790674,6.31371087 L5.00297444,6.31371087 L5.00297444,2.01408466 L3.00576239,2.01408466 Z M0.198076138,6.31371087 L0.834807385,6.31371087 C1.33655748,5.08081647 1.57783996,3.86838761 1.57783996,1.4334005 L1.57783996,0.597930554 L6.48884382,0.597930554 L6.48884382,6.31371087 L7.29941591,6.31371087 L7.10638993,9.21733843 L5.86170514,9.21733843 L5.86170514,7.72986498 L1.63568902,7.72986498 L1.53917603,9.21733843 L0.198076138,9.21733843 L0.198076138,6.31371087 Z" id="Fill-5-Copy-2"></path>
                    <path d="M14.5809186,4.28617427 C14.5809186,3.06351264 13.7317805,2.04467963 12.5354501,2.04467963 C11.3390218,2.04467963 10.5091667,3.04315045 10.5091667,4.28617427 C10.5091667,5.50873253 11.3583048,6.5276689 12.5547331,6.5276689 C13.7510635,6.5276689 14.5809186,5.52909472 14.5809186,4.28617427 M8.9557578,4.28617427 C8.9557578,2.25863766 10.4706007,0.597930554 12.5547331,0.597930554 C14.6387677,0.597930554 16.1343275,2.23827547 16.1343275,4.28617427 C16.1343275,6.31360751 14.6194847,7.97441798 12.5354501,7.97441798 C10.4513176,7.97441798 8.9557578,6.3339697 8.9557578,4.28617427" id="Fill-7-Copy"></path>
                    <path d="M20.5466445,4.56121887 L20.5466445,6.31371087 L22.1868759,6.31371087 C22.8815541,6.31371087 23.2193496,6.02833013 23.2193496,5.40692158 C23.2193496,4.85672902 22.8815541,4.56121887 22.1772834,4.56121887 L20.5466445,4.56121887 Z M20.5466445,3.25710848 L22.3316454,3.25710848 C23.8560808,3.25710848 24.7051211,4.1333028 24.7051211,5.46800815 C24.7051211,6.92499 23.7499753,7.72986498 22.1868759,7.72986498 L19.0607751,7.72986498 L19.0607751,0.597930554 L24.2420349,0.597930554 L24.2420349,2.01408466 L20.5466445,2.01408466 L20.5466445,3.25710848 Z" id="Fill-9-Copy"></path>
                    <path d="M29.1341358,4.19449273 C29.8770705,4.19449273 30.3112811,3.72585229 30.3112811,3.0941076 C30.3112811,2.39114694 29.848097,2.01408466 29.1051623,2.01408466 L27.9569905,2.01408466 L27.9569905,4.19449273 L29.1341358,4.19449273 Z M26.4711211,0.597930554 L29.2306488,0.597930554 C30.8419067,0.597930554 31.8164335,1.60663415 31.8164335,3.08397819 C31.8164335,4.73445252 30.6007221,5.59028465 29.0858793,5.59028465 L27.9569905,5.59028465 L27.9569905,7.72986498 L26.4711211,7.72986498 L26.4711211,0.597930554 Z" id="Fill-11-Copy"></path>
                    <path d="M39.5065301,4.28617427 C39.5065301,3.06351264 38.6574899,2.04467963 37.4610616,2.04467963 C36.2646333,2.04467963 35.4348761,3.04315045 35.4348761,4.28617427 C35.4348761,5.50873253 36.2839163,6.5276689 37.4803446,6.5276689 C38.6767729,6.5276689 39.5065301,5.52909472 39.5065301,4.28617427 M33.8814672,4.28617427 C33.8814672,2.25863766 35.39631,0.597930554 37.4803446,0.597930554 C39.5644771,0.597930554 41.059939,2.23827547 41.059939,4.28617427 C41.059939,6.31360751 39.545194,7.97441798 37.4610616,7.97441798 C35.377027,7.97441798 33.8814672,6.3339697 33.8814672,4.28617427" id="Fill-13-Copy"></path>
                    <path d="M46.52574,6.35433189 C47.1818521,6.35433189 47.5773988,6.10988225 47.5773988,5.55968969 C47.5773988,5.08081647 47.2397012,4.78530631 46.4774835,4.78530631 L44.7600221,4.78530631 L44.7600221,6.35433189 L46.52574,6.35433189 Z M46.1300955,3.48119593 C46.7862076,3.48119593 47.2011352,3.25700512 47.2011352,2.70691592 C47.2011352,2.23827547 46.853845,1.97325692 46.2266085,1.97325692 L44.7600221,1.97325692 L44.7600221,3.48119593 L46.1300955,3.48119593 Z M43.3128166,0.597930554 L46.44851,0.597930554 C47.2204182,0.597930554 47.8282738,0.822018001 48.2142279,1.22957188 C48.522952,1.55557363 48.6773141,1.95289473 48.6773141,2.46236292 C48.6773141,3.2672379 48.272077,3.71561951 47.7897078,4.00079353 C48.5712085,4.31666587 49.0536756,4.79553909 49.0536756,5.77364772 C49.0536756,7.07775811 48.0501754,7.72986498 46.52574,7.72986498 L43.3128166,7.72986498 L43.3128166,0.597930554 Z" id="Fill-15-Copy"></path>
                    <path d="M56.3483235,4.28617427 C56.3483235,3.06351264 55.4991854,2.04467963 54.302855,2.04467963 C53.1064267,2.04467963 52.2765716,3.04315045 52.2765716,4.28617427 C52.2765716,5.50873253 53.1257097,6.5276689 54.322138,6.5276689 C55.5184684,6.5276689 56.3483235,5.52909472 56.3483235,4.28617427 M50.7231627,4.28617427 C50.7231627,2.25863766 52.2380055,0.597930554 54.322138,0.597930554 C56.4061726,0.597930554 57.9017324,2.23827547 57.9017324,4.28617427 C57.9017324,6.31360751 56.3868895,7.97441798 54.302855,7.97441798 C52.2187225,7.97441798 50.7231627,6.3339697 50.7231627,4.28617427" id="Fill-17-Copy"></path>
                    <path d="M65.8875059,0.597930554 L65.8875059,7.72986498 L64.4016365,7.72986498 L64.4016365,2.01408466 L62.452681,2.01408466 L62.452681,2.55414781 C62.452681,6.75175635 61.8061614,7.82154651 60.2624429,7.82154651 C60.0211605,7.82154651 59.6641799,7.78082213 59.4808443,7.72986498 L59.5773573,6.43588401 C59.6448968,6.44611678 59.7124364,6.45634956 59.8089493,6.45634956 C60.609831,6.45634956 61.0632267,5.91628641 61.0632267,2.07527459 L61.0632267,0.597930554 L65.8875059,0.597930554 Z" id="Fill-19-Copy"></path>
                    <path d="M69.7243954,4.36772639 L69.7243954,6.31371087 L71.0462122,6.31371087 C71.7795544,6.31371087 72.155818,5.97747634 72.155818,5.31524005 C72.155818,4.71419369 71.7795544,4.36772639 71.0366197,4.36772639 L69.7243954,4.36772639 Z M68.238526,0.597930554 L69.7243954,0.597930554 L69.7243954,3.02278826 L71.1621061,3.02278826 C72.7251076,3.02278826 73.6320948,3.93970696 73.6320948,5.33560224 C73.6320948,6.80281687 72.6478776,7.72986498 71.0655931,7.72986498 L68.238526,7.72986498 L68.238526,0.597930554 Z" id="Fill-21-Copy"></path>
                    <polygon id="Fill-23-Copy" points="80.6564867 7.72986498 75.648872 7.72986498 75.648872 0.597930554 77.1347414 0.597930554 77.1347414 6.31371087 79.797756 6.31371087 79.797756 0.597930554 81.2836254 0.597930554 81.2836254 6.31371087 82.0844092 6.31371087 81.8914811 9.2174418 80.6564867 9.2174418"></polygon>
                    <polygon id="Fill-25-Copy" points="84.4065537 7.72986498 85.8924231 7.72986498 85.8924231 0.597930554 84.4065537 0.597930554"></polygon>
                </g>
                <g id="Group-2-Copy-2" transform="translate(43.000000, 23.586268)">
                    <path d="M3.7581745,6.39350223 C4.41428665,6.39350223 4.8098333,6.1490526 4.8098333,5.59886003 C4.8098333,5.11998681 4.47213571,4.82447666 3.709918,4.82447666 L1.99245659,4.82447666 L1.99245659,6.39350223 L3.7581745,6.39350223 Z M3.36252996,3.52036628 C4.01864211,3.52036628 4.43356967,3.29617547 4.43356967,2.74608626 C4.43356967,2.27744582 4.08627951,2.01242727 3.45904295,2.01242727 L1.99245659,2.01242727 L1.99245659,3.52036628 L3.36252996,3.52036628 Z M0.545251137,0.637100901 L3.68094453,0.637100901 C4.45285269,0.637100901 5.06080623,0.861188348 5.44666243,1.26874222 C5.75538654,1.59474398 5.9097486,1.99206508 5.9097486,2.50153327 C5.9097486,3.30640824 5.50460938,3.75478986 5.02214231,4.03996387 C5.80364304,4.35583622 6.28611011,4.83470944 6.28611011,5.81281807 C6.28611011,7.11692845 5.28260992,7.76903533 3.7581745,7.76903533 L0.545251137,7.76903533 L0.545251137,0.637100901 Z" id="Fill-27"></path>
                    <path d="M15.0461128,4.20302677 C15.0461128,2.98036514 14.1970725,1.96153213 13.0006442,1.96153213 C11.8042159,1.96153213 10.9744587,2.96000295 10.9744587,4.20302677 C10.9744587,5.42558504 11.823499,6.44452141 13.0199272,6.44452141 C14.2163555,6.44452141 15.0461128,5.44594723 15.0461128,4.20302677 M9.4210498,4.20302677 C9.4210498,2.17549017 10.9358927,0.514783058 13.0199272,0.514783058 C15.1040597,0.514783058 16.5995217,2.15512798 16.5995217,4.20302677 C16.5995217,6.23046001 15.0847767,7.89127048 13.0006442,7.89127048 C10.9166096,7.89127048 9.4210498,6.2508222 9.4210498,4.20302677" id="Fill-28"></path>
                    <polygon id="Fill-29" points="21.6159655 7.76899398 20.1300961 7.76899398 20.1300961 0.637059557 24.8481719 0.637059557 24.8481719 2.05321367 21.6159655 2.05321367"></polygon>
                    <polygon id="Fill-30" points="28.1088623 0.637059557 29.5947317 0.637059557 29.5947317 3.45923836 32.3348784 3.45923836 32.3348784 0.637059557 33.8207478 0.637059557 33.8207478 7.76899398 32.3348784 7.76899398 32.3348784 4.9060908 29.5947317 4.9060908 29.5947317 7.76899398 28.1088623 7.76899398"></polygon>
                    <polygon id="Fill-31" points="37.6505712 0.637059557 42.7450085 0.637059557 42.7450085 2.03285148 39.1267502 2.03285148 39.1267502 3.47960055 42.3107979 3.47960055 42.3107979 4.87549583 39.1267502 4.87549583 39.1267502 6.37320206 42.7931671 6.37320206 42.7931671 7.76899398 37.6505712 7.76899398"></polygon>
                    <path d="M47.8098948,4.6003272 L47.8098948,6.3528192 L49.4501262,6.3528192 C50.1448044,6.3528192 50.4825999,6.06743846 50.4825999,5.44602991 C50.4825999,4.89583735 50.1448044,4.6003272 49.4405337,4.6003272 L47.8098948,4.6003272 Z M47.8098948,3.29621681 L49.5948957,3.29621681 C51.119429,3.29621681 51.9683714,4.17241113 51.9683714,5.50711648 C51.9683714,6.96409833 51.0132256,7.76897331 49.4501262,7.76897331 L46.3240254,7.76897331 L46.3240254,0.637038885 L51.5052852,0.637038885 L51.5052852,2.05319299 L47.8098948,2.05319299 L47.8098948,3.29621681 Z" id="Fill-32"></path>
                    <path d="M60.7284915,4.20302677 C60.7284915,2.98036514 59.8794513,1.96153213 58.6831209,1.96153213 C57.4865947,1.96153213 56.6568375,2.96000295 56.6568375,4.20302677 C56.6568375,5.42558504 57.5058777,6.44452141 58.702306,6.44452141 C59.8987343,6.44452141 60.7284915,5.44594723 60.7284915,4.20302677 M55.1034286,4.20302677 C55.1034286,2.17549017 56.6182714,0.514783058 58.702306,0.514783058 C60.7864385,0.514783058 62.2819004,2.15512798 62.2819004,4.20302677 C62.2819004,6.23046001 60.7671554,7.89127048 58.6831209,7.89127048 C56.5989884,7.89127048 55.1034286,6.2508222 55.1034286,4.20302677" id="Fill-33"></path>
                    <path d="M68.4756168,4.2336114 C69.2185514,4.2336114 69.6526641,3.76497095 69.6526641,3.13322627 C69.6526641,2.4302656 69.189578,2.05320333 68.4466433,2.05320333 L67.2984715,2.05320333 L67.2984715,4.2336114 L68.4756168,4.2336114 Z M65.8126021,0.637049221 L68.5720319,0.637049221 C70.1832898,0.637049221 71.1578165,1.64575282 71.1578165,3.12309686 C71.1578165,4.77357119 69.9421052,5.62940332 68.4273603,5.62940332 L67.2984715,5.62940332 L67.2984715,7.76898365 L65.8126021,7.76898365 L65.8126021,0.637049221 Z" id="Fill-34"></path>
                    <polygon id="Fill-35" points="79.474202 7.76899398 74.4666852 7.76899398 74.4666852 0.637059557 75.9524567 0.637059557 75.9524567 6.35283987 78.6155692 6.35283987 78.6155692 0.637059557 80.1013407 0.637059557 80.1013407 6.35283987 80.9022223 6.35283987 80.7091964 9.2565708 79.474202 9.2565708"></polygon>
                    <polygon id="Fill-36" points="84.2205465 7.76901465 85.7065138 7.76901465 85.7065138 0.637080229 84.2205465 0.637080229"></polygon>
                </g>
            </g>
        </g>
    </g>
</svg>