<?xml version="1.0" encoding="UTF-8"?>
<svg width="323px" height="59px" viewBox="0 0 323 59" version="1.1" xmlns="http://www.w3.org/2000/svg" xmlns:xlink="http://www.w3.org/1999/xlink">
    <!-- Generator: Sketch 41.1 (35376) - http://www.bohemiancoding.com/sketch -->
    <title>Fill 11111</title>
    <desc>Created with Sketch.</desc>
    <defs>
        <polygon id="path-1" points="0 58.9785061 322.929675 58.9785061 322.929675 0 0 0"></polygon>
    </defs>
    <g id="Page-1" stroke="none" stroke-width="1" fill="none" fill-rule="evenodd">
        <g id="Large-Device-Desktops-Copy-6" transform="translate(-479.000000, -11.000000)">
            <g id="Page-1" transform="translate(479.000000, 11.000000)">
                <g id="Fill-11111">
                    <path d="M180.179963,49.7199636 C174.97651,54.5810443 168.212544,57.2474403 161.035638,57.2474403 C153.858587,57.2474403 147.094476,54.5810443 141.891168,49.7199636 L145.247288,46.3881225 C149.553083,50.3607411 155.125741,52.5382594 161.035638,52.5382594 C166.945391,52.5382594 172.518049,50.3607411 176.823989,46.3881225 L180.179963,49.7199636 L180.179963,49.7199636 Z M173.279416,40.4210443 L171.272109,38.4281714 C173.389117,36.0414844 174.67545,32.9118878 174.67545,29.4893108 C174.67545,26.0665895 173.389117,22.9369929 171.272109,20.5503059 L173.279271,18.5575773 C175.908023,21.4567998 177.510382,25.2906457 177.510382,29.4893108 C177.510382,33.68812 175.908023,37.5218218 173.279416,40.4210443 L173.279416,40.4210443 Z M148.791861,18.5575773 L150.799023,20.5503059 C148.682015,22.9369929 147.395826,26.0665895 147.395826,29.4893108 C147.395826,32.9118878 148.682015,36.0414844 150.799023,38.4281714 L148.791715,40.4210443 C146.162963,37.5218218 144.56075,33.68812 144.56075,29.4893108 C144.56075,25.2906457 146.163109,21.4567998 148.791861,18.5575773 L148.791861,18.5575773 Z M161.035638,41.2999856 C154.475963,41.2999856 149.139416,36.0016702 149.139416,29.4893108 C149.139416,22.9768071 154.475963,17.6786359 161.035638,17.6786359 C167.595168,17.6786359 172.931861,22.9768071 172.931861,29.4893108 C172.931861,36.0016702 167.595168,41.2999856 161.035638,41.2999856 L161.035638,41.2999856 Z M171.435279,41.0383083 C168.571579,43.5864159 164.911348,44.9802007 161.035638,44.9802007 C157.159784,44.9802007 153.499553,43.5864159 150.635852,41.0383083 L152.02651,39.6576506 L152.018228,39.6401958 C154.423946,41.7490491 157.581587,43.0310369 161.035638,43.0310369 C164.487656,43.0310369 167.643844,41.7504917 170.049126,39.6436579 L170.044767,39.6576506 L171.435279,41.0383083 L171.435279,41.0383083 Z M170.052468,19.3379929 C167.646895,17.2292839 164.489399,15.9475846 161.035638,15.9475846 C157.581006,15.9475846 154.422929,17.2298609 152.017066,19.3392912 L152.02651,19.3209709 L150.635852,17.9403132 C153.499698,15.3920614 157.159929,13.9984208 161.035638,13.9984208 C164.911348,13.9984208 168.571579,15.3920614 171.435279,17.9403132 L170.044767,19.3209709 L170.052468,19.3379929 L170.052468,19.3379929 Z M141.891168,9.25865795 C147.094621,4.39757726 153.858587,1.73118117 161.035638,1.73118117 C168.212544,1.73118117 174.97651,4.39757726 180.179963,9.25865795 L176.823844,12.590499 C172.518049,8.61773619 166.945391,6.4403621 161.035638,6.4403621 C155.125741,6.4403621 149.553228,8.61773619 145.247288,12.590499 L141.891168,9.25865795 L141.891168,9.25865795 Z M186.226297,29.4893108 C186.226297,22.8944379 183.653921,16.8970663 179.452741,12.4286457 L182.655134,9.24928142 L182.03863,8.63735477 C176.42863,3.06755281 168.969698,0.000129828851 161.035638,0.000129828851 C153.101579,0.000129828851 145.642502,3.06755281 140.032502,8.63735477 L139.415997,9.24928142 L142.618536,12.42879 C138.417211,16.8970663 135.84498,22.8944379 135.84498,29.4893108 C135.84498,36.0840394 138.417211,42.081411 142.618536,46.5498315 L139.415997,49.7291958 L140.032502,50.3412667 C145.642502,55.9110687 153.101579,58.9784917 161.035638,58.9784917 C168.969553,58.9784917 176.42863,55.9110687 182.03863,50.3412667 L182.655134,49.7291958 L179.452741,46.5498315 C183.653921,42.0815553 186.226297,36.0840394 186.226297,29.4893108 L186.226297,29.4893108 Z" id="Fill-1" fill="#FEFEFE" fill-rule="evenodd"></path>
                    <path d="M158.985221,37.6103218 C156.914417,37.1358694 152.613272,34.2891555 153.091161,30.8889379 C153.56905,27.488576 154.843468,27.7258743 155.719622,25.4326641 C155.719622,25.4326641 156.595776,26.3815687 156.595776,27.8049257 C156.595776,27.8049257 161.215417,24.7209134 160.578135,20.6881408 C160.578135,20.6881408 164.719887,21.6370455 165.596041,26.856021 C165.596041,26.856021 167.348349,25.2745614 166.87046,23.6929575 C166.87046,23.6929575 169.817417,27.0141237 169.18028,30.8889379 C168.542998,34.7636078 165.914682,36.5823658 163.764109,37.2939721 C163.764109,37.2939721 167.268725,31.9168939 162.728708,27.5677716 C162.728708,27.5677716 163.286221,30.2562386 161.295041,31.6795956 C161.295041,31.6795956 161.135648,30.2562386 160.259639,29.7817863 C160.259639,29.7817863 158.905597,31.5214929 158.029443,33.0239012 C157.153289,34.5263095 157.631178,36.5823658 158.985221,37.6103218" id="Fill-3" fill="#FEFEFE" fill-rule="evenodd"></path>
                    <path d="M4.16777521,26.0966088 L4.16777521,27.1062445 C4.16777521,29.2106259 3.83838205,30.7179389 3.26546752,32.0972983 L7.13245897,32.0972983 L7.13245897,26.0966088 L4.16777521,26.0966088 Z M1.45299146e-05,32.0972983 L0.94518547,32.0972983 C1.68998889,30.3766333 2.04815128,28.6845306 2.04815128,25.2861883 L2.04815128,24.1201809 L9.3381,24.1201809 L9.3381,32.0972983 L10.5413222,32.0972983 L10.2547923,36.1496895 L8.40716838,36.1496895 L8.40716838,34.0737262 L2.13402308,34.0737262 L1.99075812,36.1496895 L1.45299146e-05,36.1496895 L1.45299146e-05,32.0972983 Z" id="Fill-5" fill="#FEFEFE" fill-rule="evenodd"></path>
                    <path d="M21.4396444,29.0969247 C21.4396444,27.3905408 20.1791744,25.9686264 18.4033282,25.9686264 C16.6273368,25.9686264 15.3954906,27.3621227 15.3954906,29.0969247 C15.3954906,30.8031643 16.6559607,32.225223 18.4319521,32.225223 C20.2077983,32.225223 21.4396444,30.8315824 21.4396444,29.0969247 M13.0895932,29.0969247 C13.0895932,26.2672328 15.3382427,23.9494993 18.4319521,23.9494993 C21.5255162,23.9494993 23.7455419,26.2388147 23.7455419,29.0969247 C23.7455419,31.9264724 21.4968923,34.2443501 18.4033282,34.2443501 C15.3096188,34.2443501 13.0895932,31.9548905 13.0895932,29.0969247" id="Fill-7" fill="#FEFEFE" fill-rule="evenodd"></path>
                    <path d="M29.3587966,29.6514093 L29.3587966,32.0972406 L31.7935744,32.0972406 C32.8247624,32.0972406 33.3261897,31.6989545 33.3261897,30.8316978 C33.3261897,30.0638323 32.8247624,29.6514093 31.779335,29.6514093 L29.3587966,29.6514093 Z M29.3587966,27.8313531 L32.0084718,27.8313531 C34.2713607,27.8313531 35.5316855,29.0541966 35.5316855,30.9169521 C35.5316855,32.9503604 34.1138564,34.0736685 31.7935744,34.0736685 L27.1531556,34.0736685 L27.1531556,24.1201232 L34.8442752,24.1201232 L34.8442752,26.0965511 L29.3587966,26.0965511 L29.3587966,27.8313531 Z" id="Fill-9" fill="#FEFEFE" fill-rule="evenodd"></path>
                    <path d="M42.7493769,29.1396095 C43.8521974,29.1396095 44.4967444,28.4855606 44.4967444,27.6038785 C44.4967444,26.6228051 43.8091889,26.0965655 42.7063684,26.0965655 L41.0020094,26.0965655 L41.0020094,29.1396095 L42.7493769,29.1396095 Z M38.7963684,24.1201377 L42.8926419,24.1201377 C45.2844111,24.1201377 46.7310094,25.5279152 46.7310094,27.5897416 C46.7310094,29.8931939 44.926394,31.0876193 42.6777444,31.0876193 L41.0020094,31.0876193 L41.0020094,34.0736829 L38.7963684,34.0736829 L38.7963684,24.1201377 Z" id="Fill-11" fill="#FEFEFE" fill-rule="evenodd"></path>
                    <path d="M57.7154795,29.0969247 C57.7154795,27.3905408 56.4551547,25.9686264 54.6791632,25.9686264 C52.9031718,25.9686264 51.6714709,27.3621227 51.6714709,29.0969247 C51.6714709,30.8031643 52.9317957,32.225223 54.7077872,32.225223 C56.4837786,32.225223 57.7154795,30.8315824 57.7154795,29.0969247 M49.3655735,29.0969247 C49.3655735,26.2672328 51.6142231,23.9494993 54.7077872,23.9494993 C57.8014966,23.9494993 60.0213769,26.2388147 60.0213769,29.0969247 C60.0213769,31.9264724 57.7728726,34.2443501 54.6791632,34.2443501 C51.5855991,34.2443501 49.3655735,31.9548905 49.3655735,29.0969247" id="Fill-13" fill="#FEFEFE" fill-rule="evenodd"></path>
                    <path d="M68.198435,32.1540191 C69.1723752,32.1540191 69.7595291,31.8128577 69.7595291,31.0449922 C69.7595291,30.3766621 69.258247,29.9642391 68.1268026,29.9642391 L65.5773838,29.9642391 L65.5773838,32.1540191 L68.198435,32.1540191 Z M67.6111359,28.1441829 C68.5850761,28.1441829 69.2009991,27.8312954 69.2009991,27.0635741 C69.2009991,26.4095252 68.6854778,26.0396572 67.7544009,26.0396572 L65.5773838,26.0396572 L65.5773838,28.1441829 L67.6111359,28.1441829 Z M63.4291359,24.1202098 L68.083794,24.1202098 C69.2296231,24.1202098 70.1319308,24.4329531 70.7048453,25.0017477 C71.1631188,25.4567257 71.3922556,26.0112391 71.3922556,26.7222685 C71.3922556,27.8455765 70.7907171,28.4713516 70.0746829,28.8693491 C71.2347513,29.3101902 71.9509308,29.9785203 71.9509308,31.3435985 C71.9509308,33.1636548 70.4613239,34.073755 68.198435,34.073755 L63.4291359,34.073755 L63.4291359,24.1202098 Z" id="Fill-15" fill="#FEFEFE" fill-rule="evenodd"></path>
                    <path d="M83.1213983,29.0969247 C83.1213983,27.3905408 81.8609282,25.9686264 80.0850821,25.9686264 C78.3090906,25.9686264 77.0772444,27.3621227 77.0772444,29.0969247 C77.0772444,30.8031643 78.3377145,32.225223 80.113706,32.225223 C81.8895521,32.225223 83.1213983,30.8315824 83.1213983,29.0969247 M74.771347,29.0969247 C74.771347,26.2672328 77.0199966,23.9494993 80.113706,23.9494993 C83.2072701,23.9494993 85.4272957,26.2388147 85.4272957,29.0969247 C85.4272957,31.9264724 83.1786462,34.2443501 80.0850821,34.2443501 C76.9913726,34.2443501 74.771347,31.9548905 74.771347,29.0969247" id="Fill-17" fill="#FEFEFE" fill-rule="evenodd"></path>
                    <path d="M96.8984889,24.1201521 L96.8984889,34.0736973 L94.6928479,34.0736973 L94.6928479,26.09658 L91.7997966,26.09658 L91.7997966,26.8503086 C91.7997966,32.7086191 90.8400957,34.2016509 88.5485829,34.2016509 C88.1904205,34.2016509 87.6605145,34.1448147 87.3883692,34.0736973 L87.5316342,32.267778 C87.6318906,32.2820592 87.732147,32.2963403 87.875412,32.2963403 C89.0642496,32.2963403 89.7372752,31.5426117 89.7372752,26.1819785 L89.7372752,24.1201521 L96.8984889,24.1201521 Z" id="Fill-19" fill="#FEFEFE" fill-rule="evenodd"></path>
                    <path d="M102.955865,29.3813509 L102.955865,32.0972262 L104.917985,32.0972262 C106.006566,32.0972262 106.565096,31.627967 106.565096,30.7037298 C106.565096,29.8648912 106.006566,29.3813509 104.903745,29.3813509 L102.955865,29.3813509 Z M100.750224,24.1201088 L102.955865,24.1201088 L102.955865,27.5043142 L105.090019,27.5043142 C107.410156,27.5043142 108.756497,28.7839939 108.756497,30.7321479 C108.756497,32.7798374 107.295515,34.073654 104.946754,34.073654 L100.750224,34.073654 L100.750224,24.1201088 Z" id="Fill-21" fill="#FEFEFE" fill-rule="evenodd"></path>
                    <polygon id="Fill-23" fill="#FEFEFE" fill-rule="evenodd" points="119.325426 34.0736973 111.892068 34.0736973 111.892068 24.1201521 114.097709 24.1201521 114.097709 32.0972694 118.050717 32.0972694 118.050717 24.1201521 120.256358 24.1201521 120.256358 32.0972694 121.44505 32.0972694 121.158666 36.1498049 119.325426 36.1498049"></polygon>
                    <mask id="mask-2" fill="white">
                        <use xlink:href="#path-1"></use>
                    </mask>
                    <g id="Clip-26"></g>
                    <polygon id="Fill-25" fill="#FEFEFE" fill-rule="evenodd" mask="url(#mask-2)" points="124.537786 34.0737262 126.743427 34.0737262 126.743427 24.1201809 124.537786 24.1201809"></polygon>
                    <path d="M201.28465,32.1540191 C202.25859,32.1540191 202.845744,31.8128577 202.845744,31.0449922 C202.845744,30.3766621 202.344462,29.9642391 201.213017,29.9642391 L198.663598,29.9642391 L198.663598,32.1540191 L201.28465,32.1540191 Z M200.69735,28.1441829 C201.671291,28.1441829 202.287214,27.8312954 202.287214,27.0635741 C202.287214,26.4095252 201.771692,26.0396572 200.840615,26.0396572 L198.663598,26.0396572 L198.663598,28.1441829 L200.69735,28.1441829 Z M196.51535,24.1202098 L201.170009,24.1202098 C202.315838,24.1202098 203.218291,24.4329531 203.79106,25.0017477 C204.249333,25.4567257 204.47847,26.0112391 204.47847,26.7222685 C204.47847,27.8455765 203.877077,28.4713516 203.160897,28.8693491 C204.320966,29.3101902 205.037145,29.9785203 205.037145,31.3435985 C205.037145,33.1636548 203.547538,34.073755 201.28465,34.073755 L196.51535,34.073755 L196.51535,24.1202098 Z" id="Fill-27" fill="#FEFEFE" fill-rule="evenodd" mask="url(#mask-2)"></path>
                    <path d="M218.040591,29.0969247 C218.040591,27.3905408 216.780266,25.9686264 215.004274,25.9686264 C213.228283,25.9686264 211.996582,27.3621227 211.996582,29.0969247 C211.996582,30.8031643 213.256907,32.225223 215.032898,32.225223 C216.80889,32.225223 218.040591,30.8315824 218.040591,29.0969247 M209.690685,29.0969247 C209.690685,26.2672328 211.939334,23.9494993 215.032898,23.9494993 C218.126608,23.9494993 220.346488,26.2388147 220.346488,29.0969247 C220.346488,31.9264724 218.097984,34.2443501 215.004274,34.2443501 C211.91071,34.2443501 209.690685,31.9548905 209.690685,29.0969247" id="Fill-28" fill="#FEFEFE" fill-rule="evenodd" mask="url(#mask-2)"></path>
                    <polygon id="Fill-29" fill="#FEFEFE" fill-rule="evenodd" mask="url(#mask-2)" points="227.792953 34.0736973 225.587312 34.0736973 225.587312 24.1201521 232.590876 24.1201521 232.590876 26.09658 227.792953 26.09658"></polygon>
                    <polygon id="Fill-30" fill="#FEFEFE" fill-rule="evenodd" mask="url(#mask-2)" points="237.431081 24.1201521 239.636722 24.1201521 239.636722 28.0588709 243.704226 28.0588709 243.704226 24.1201521 245.909868 24.1201521 245.909868 34.0736973 243.704226 34.0736973 243.704226 30.0781423 239.636722 30.0781423 239.636722 34.0736973 237.431081 34.0736973"></polygon>
                    <polygon id="Fill-31" fill="#FEFEFE" fill-rule="evenodd" mask="url(#mask-2)" points="251.5949 24.1201521 259.157139 24.1201521 259.157139 26.0681619 253.786156 26.0681619 253.786156 28.087289 258.512592 28.087289 258.512592 30.035443 253.786156 30.035443 253.786156 32.1256875 259.228626 32.1256875 259.228626 34.0736973 251.5949 34.0736973"></polygon>
                    <path d="M266.675513,29.6514093 L266.675513,32.0972406 L269.110291,32.0972406 C270.141479,32.0972406 270.642906,31.6989545 270.642906,30.8316978 C270.642906,30.0638323 270.141479,29.6514093 269.096051,29.6514093 L266.675513,29.6514093 Z M266.675513,27.8313531 L269.325188,27.8313531 C271.588222,27.8313531 272.848402,29.0541966 272.848402,30.9169521 C272.848402,32.9503604 271.430573,34.0736685 269.110291,34.0736685 L264.469872,34.0736685 L264.469872,24.1201232 L272.160991,24.1201232 L272.160991,26.0965511 L266.675513,26.0965511 L266.675513,27.8313531 Z" id="Fill-32" fill="#FEFEFE" fill-rule="evenodd" mask="url(#mask-2)"></path>
                    <path d="M285.852021,29.0969247 C285.852021,27.3905408 284.591697,25.9686264 282.81585,25.9686264 C281.039714,25.9686264 279.808013,27.3621227 279.808013,29.0969247 C279.808013,30.8031643 281.068338,32.225223 282.844329,32.225223 C284.620321,32.225223 285.852021,30.8315824 285.852021,29.0969247 M277.502115,29.0969247 C277.502115,26.2672328 279.750765,23.9494993 282.844329,23.9494993 C285.938038,23.9494993 288.157919,26.2388147 288.157919,29.0969247 C288.157919,31.9264724 285.909415,34.2443501 282.81585,34.2443501 C279.722141,34.2443501 277.502115,31.9548905 277.502115,29.0969247" id="Fill-33" fill="#FEFEFE" fill-rule="evenodd" mask="url(#mask-2)"></path>
                    <path d="M297.35194,29.1396095 C298.454761,29.1396095 299.099162,28.4855606 299.099162,27.6038785 C299.099162,26.6228051 298.411752,26.0965655 297.308932,26.0965655 L295.604573,26.0965655 L295.604573,29.1396095 L297.35194,29.1396095 Z M293.398932,24.1201377 L297.49506,24.1201377 C299.886829,24.1201377 301.333427,25.5279152 301.333427,27.5897416 C301.333427,29.8931939 299.528812,31.0876193 297.280308,31.0876193 L295.604573,31.0876193 L295.604573,34.0736829 L293.398932,34.0736829 L293.398932,24.1201377 Z" id="Fill-34" fill="#FEFEFE" fill-rule="evenodd" mask="url(#mask-2)"></path>
                    <polygon id="Fill-35" fill="#FEFEFE" fill-rule="evenodd" mask="url(#mask-2)" points="313.678362 34.0736973 306.245149 34.0736973 306.245149 24.1201521 308.450644 24.1201521 308.450644 32.0972694 312.403798 32.0972694 312.403798 24.1201521 314.609294 24.1201521 314.609294 32.0972694 315.798132 32.0972694 315.511602 36.1498049 313.678362 36.1498049"></polygon>
                    <polygon id="Fill-36" fill="#FEFEFE" fill-rule="evenodd" mask="url(#mask-2)" points="320.723889 34.0737262 322.929675 34.0737262 322.929675 24.1201809 320.723889 24.1201809"></polygon>
                </g>
            </g>
        </g>
    </g>
</svg>