<svg xmlns="http://www.w3.org/2000/svg" viewBox="0 0 94.4 94"><style>.st0{fill-rule:evenodd;clip-rule:evenodd;fill:#fff}</style><path class="st0" d="M71.3 87.4C64.3 91.6 56 94 47.2 94s-17-2.4-24.1-6.6l7.5-12.6c4.9 2.9 10.5 4.5 16.6 4.5 6.1 0 11.8-1.7 16.6-4.6l7.5 12.7zm0-80.8l-7.5 12.6c-4.9-2.9-10.5-4.6-16.6-4.6-6.1 0-11.7 1.7-16.6 4.5L23.1 6.6C30.1 2.4 38.4 0 47.2 0s17.1 2.4 24.1 6.6m23 40.4c0 8.8-2.4 17-6.6 24l-12.6-7.5C78 58.7 79.7 53 79.7 47S78 35.3 75.1 30.5L87.7 23c4.2 7 6.6 15.2 6.6 24m-75 16.6L6.7 71.1C2.4 64.1 0 55.8 0 47s2.4-17 6.6-24.1l12.7 7.5C16.4 35.3 14.8 41 14.8 47c0 6.1 1.6 11.8 4.5 16.6" id="Round"/><path class="st0" d="M65.8 46.7L37.3 67.9V25.5z" id="Play"/></svg>